<?xml version="1.0" encoding="UTF-8"?>
<svg id="Layer_1" data-name="Layer 1" xmlns="http://www.w3.org/2000/svg" viewBox="0 0 522 531">
  <polygon points="98.67 156.68 169.01 278.01 236.14 156.68 285.19 156.68 285.19 386.44 316.17 386.44 316.17 436.78 285.19 436.78 285.19 456.14 316.17 456.14 316.17 506.48 285.19 506.48 285.19 531 236.14 531 236.14 249.62 168.38 369.65 99.32 248.33 99.32 374.82 50.27 374.82 50.27 156.68 98.67 156.68"/>
  <polygon points="471.06 75.36 471.06 126.99 261.2 52.2 50.27 126.99 50.27 75.36 260.03 .41 471.06 75.36"/>
  <polygon points="469.77 156.68 358.74 265.77 469.77 377.4 400.71 377.4 287.79 267.04 400.71 156.68 469.77 156.68"/>
</svg>